<?xml version="1.0" encoding="UTF-8" standalone="no"?>
<svg
   viewBox="0 0 24 24"
   version="1.1"
   id="svg6"
   sodipodi:docname="cart.svg"
   inkscape:version="1.2.2 (b0a8486541, 2022-12-01)"
   xmlns:inkscape="http://www.inkscape.org/namespaces/inkscape"
   xmlns:sodipodi="http://sodipodi.sourceforge.net/DTD/sodipodi-0.dtd"
   xmlns="http://www.w3.org/2000/svg"
   xmlns:svg="http://www.w3.org/2000/svg">
  <defs
     id="defs10" />
  <sodipodi:namedview
     id="namedview8"
     pagecolor="#ffffff"
     bordercolor="#000000"
     borderopacity="0.25"
     inkscape:showpageshadow="2"
     inkscape:pageopacity="0.0"
     inkscape:pagecheckerboard="0"
     inkscape:deskcolor="#d1d1d1"
     showgrid="false"
     inkscape:zoom="34.875"
     inkscape:cx="6.2365591"
     inkscape:cy="12.028674"
     inkscape:window-width="1920"
     inkscape:window-height="1007"
     inkscape:window-x="0"
     inkscape:window-y="0"
     inkscape:window-maximized="1"
     inkscape:current-layer="svg6" />
  <title
     id="title2">cart</title>
  <path
     d="M17,18C15.89,18 15,18.89 15,20A2,2 0 0,0 17,22A2,2 0 0,0 19,20C19,18.89 18.1,18 17,18M1,2V4H3L6.6,11.59L5.24,14.04C5.09,14.32 5,14.65 5,15A2,2 0 0,0 7,17H19V15H7.42A0.25,0.25 0 0,1 7.17,14.75C7.17,14.7 7.18,14.66 7.2,14.63L8.1,13H15.55C16.3,13 16.96,12.58 17.3,11.97L20.88,5.5C20.95,5.34 21,5.17 21,5A1,1 0 0,0 20,4H5.21L4.27,2M7,18C5.89,18 5,18.89 5,20A2,2 0 0,0 7,22A2,2 0 0,0 9,20C9,18.89 8.1,18 7,18Z"
     id="path4" />
  <path
     style="fill:#ffffff;stroke-width:0.0286738"
     d="M 6.688556,16.959633 C 6.2802389,16.890879 5.923916,16.705358 5.6172582,16.401857 5.2082916,15.9971 5.0254323,15.562854 5.0254323,14.996416 c 0,-0.510414 0.029954,-0.582885 0.8615005,-2.084319 0.3973124,-0.717385 0.7223862,-1.312964 0.7223862,-1.323509 0,-0.01681 -3.3043268,-6.9954905 -3.5150451,-7.4237134 L 3.0131431,4 H 2.0155321 1.0179211 V 3.0105159 2.0210318 l 1.6257096,0.00741 1.6257095,0.00741 0.4602139,0.9816574 0.4602139,0.9816574 7.498306,0.00759 7.498306,0.00759 0.171154,0.068926 c 0.205671,0.082826 0.430926,0.2963286 0.532325,0.5045508 0.09515,0.1953886 0.111238,0.5124978 0.0371,0.7313222 -0.04359,0.1286623 -3.334569,6.1236904 -3.671343,6.6879164 -0.268667,0.450121 -0.713588,0.779216 -1.233094,0.912083 -0.210622,0.05387 -0.350043,0.05581 -4.077292,0.05681 l -3.8592125,10e-4 -0.4581718,0.837367 c -0.2519945,0.460552 -0.4630397,0.879065 -0.4689895,0.930029 -0.00854,0.07319 0.00744,0.11092 0.076038,0.179518 l 0.086855,0.08686 h 5.8373318 5.837331 V 16 16.989247 l -6.086022,-0.0034 c -3.3473118,-0.0019 -6.1471391,-0.01366 -6.2218382,-0.02624 z"
     id="path254" />
  <path
     style="fill:#ffffff;stroke-width:0.0286738"
     d="m 6.6666667,21.958807 c -0.039427,-0.0065 -0.1555556,-0.03813 -0.2580645,-0.07022 -0.6565536,-0.205513 -1.1588223,-0.742586 -1.3371516,-1.429809 -0.062112,-0.239357 -0.062084,-0.66923 5.98e-5,-0.927521 0.211413,-0.878709 1.0159832,-1.509755 1.9249054,-1.509755 0.8694896,0 1.6223948,0.551594 1.8982294,1.390681 0.065172,0.198254 0.075408,0.278043 0.075408,0.587814 0,0.309771 -0.010236,0.38956 -0.075408,0.587814 -0.2756841,0.83863 -1.0424425,1.399558 -1.8956477,1.386776 -0.1433554,-0.0021 -0.2929043,-0.0092 -0.3323308,-0.01578 z"
     id="path256" />
  <path
     style="fill:#fafafa;stroke-width:0.0286738;fill-opacity:1"
     d="M 16.507972,21.922463 C 15.843334,21.742438 15.32177,21.246148 15.105355,20.587814 15.040183,20.38956 15.029947,20.309771 15.029947,20 c 0,-0.310327 0.01016,-0.389204 0.07569,-0.587814 0.170126,-0.51559 0.52709,-0.938457 0.986222,-1.168299 0.356824,-0.178627 0.620148,-0.234528 1.009295,-0.214265 0.464968,0.02421 0.82614,0.165529 1.17575,0.460043 0.44379,0.373854 0.700009,0.926669 0.700009,1.510335 0,0.864898 -0.545055,1.609472 -1.385516,1.892686 -0.274016,0.09234 -0.799174,0.10677 -1.083426,0.02978 z"
     id="path258" />
  <path
     style="fill:#fafafa;fill-opacity:1;stroke-width:0.0286738"
     d="M 6.4073878,21.868093 C 6.0897869,21.759388 5.8434212,21.604031 5.6001326,21.359043 5.4324807,21.19022 5.3669694,21.095795 5.2505782,20.855211 5.0724533,20.487022 5.0339755,20.29518 5.0543829,19.87702 5.0797162,19.357926 5.245201,18.990292 5.618565,18.623656 c 0.4013105,-0.394079 0.7534867,-0.546849 1.3077363,-0.567283 0.2923301,-0.01078 0.3806038,-0.0032 0.5721845,0.0494 0.3591695,0.09854 0.5964903,0.238676 0.8779951,0.518462 0.2081379,0.206867 0.2682973,0.288991 0.3786838,0.516943 0.1648838,0.34049 0.1895008,0.450831 0.1903708,0.85329 8.545e-4,0.395191 -0.026095,0.516369 -0.1922242,0.864348 -0.1097816,0.22995 -0.166868,0.308263 -0.3768304,0.516943 -0.415418,0.412881 -0.8183228,0.575309 -1.4204942,0.57266 -0.2696895,-0.0012 -0.3530235,-0.01339 -0.5485989,-0.08033 z"
     id="path1014" />
  <path
     style="fill:#fafafa;fill-opacity:1;stroke-width:0.0286738"
     d="m 16.516129,21.906551 c -0.08674,-0.02368 -0.267383,-0.0968 -0.401434,-0.162499 -0.194916,-0.09553 -0.293284,-0.168996 -0.491176,-0.366839 -0.207269,-0.207219 -0.268758,-0.291393 -0.378684,-0.518394 -0.07218,-0.149053 -0.144383,-0.32907 -0.160452,-0.400038 -0.0451,-0.199166 -0.03736,-0.76495 0.01312,-0.958734 0.129217,-0.4961 0.553951,-1.014838 1.017195,-1.242328 0.3648,-0.179145 0.549323,-0.217527 0.960574,-0.199804 0.397752,0.01714 0.621188,0.07733 0.898772,0.242111 0.408565,0.242535 0.715386,0.615586 0.87656,1.065773 0.0833,0.232667 0.08838,0.270558 0.08695,0.648538 -0.0014,0.378463 -0.0067,0.415008 -0.09143,0.638657 -0.215642,0.568943 -0.626497,0.979586 -1.201121,1.200503 -0.170247,0.06545 -0.249493,0.07711 -0.584069,0.08591 -0.282171,0.0074 -0.429844,-0.0015 -0.544803,-0.03286 z"
     id="path1016" />
</svg>
