<?xml version="1.0" encoding="UTF-8" standalone="no"?>
<svg
   viewBox="0 0 24 24"
   version="1.1"
   id="svg1621"
   sodipodi:docname="clipboard-text-clock-outline.svg"
   inkscape:version="1.2.2 (b0a8486541, 2022-12-01)"
   xmlns:inkscape="http://www.inkscape.org/namespaces/inkscape"
   xmlns:sodipodi="http://sodipodi.sourceforge.net/DTD/sodipodi-0.dtd"
   xmlns="http://www.w3.org/2000/svg"
   xmlns:svg="http://www.w3.org/2000/svg">
  <defs
     id="defs1625" />
  <sodipodi:namedview
     id="namedview1623"
     pagecolor="#ffffff"
     bordercolor="#000000"
     borderopacity="0.25"
     inkscape:showpageshadow="2"
     inkscape:pageopacity="0.0"
     inkscape:pagecheckerboard="0"
     inkscape:deskcolor="#d1d1d1"
     showgrid="false"
     inkscape:zoom="34.875"
     inkscape:cx="11.985663"
     inkscape:cy="12.028674"
     inkscape:window-width="1920"
     inkscape:window-height="1007"
     inkscape:window-x="0"
     inkscape:window-y="0"
     inkscape:window-maximized="1"
     inkscape:current-layer="svg1621" />
  <title
     id="title1617">clipboard-text-clock-outline</title>
  <path
     d="M21 11.11V5C21 3.9 20.11 3 19 3H14.82C14.4 1.84 13.3 1 12 1S9.6 1.84 9.18 3H5C3.9 3 3 3.9 3 5V19C3 20.11 3.9 21 5 21H11.11C12.37 22.24 14.09 23 16 23C19.87 23 23 19.87 23 16C23 14.09 22.24 12.37 21 11.11M12 3C12.55 3 13 3.45 13 4S12.55 5 12 5 11 4.55 11 4 11.45 3 12 3M5 19V5H7V7H17V5H19V9.68C18.09 9.25 17.08 9 16 9H7V11H11.1C10.5 11.57 10.04 12.25 9.68 13H7V15H9.08C9.03 15.33 9 15.66 9 16C9 17.08 9.25 18.09 9.68 19H5M16 21C13.24 21 11 18.76 11 16S13.24 11 16 11 21 13.24 21 16 18.76 21 16 21M16.5 16.25L19.36 17.94L18.61 19.16L15 17V12H16.5V16.25Z"
     id="path1619" />
  <path
     style="fill:#fafafa;stroke-width:0.0286738"
     d="M 15.201873,22.940202 C 13.712752,22.75088 12.393185,22.150205 11.33277,21.178961 L 11.109985,20.97491 7.9205841,20.974487 C 4.3598516,20.974013 4.5619913,20.984895 4.1167736,20.769721 3.9202534,20.674743 3.8258676,20.604011 3.6113731,20.390982 3.3926561,20.173759 3.3276334,20.087417 3.2305558,19.885305 3.0082715,19.422516 3.0259373,20.103296 3.0259373,12 c 0,-8.1089563 -0.017857,-7.4275599 0.2066509,-7.8853047 C 3.3294076,3.9172926 3.4014359,3.8216602 3.6115481,3.6115481 3.8216602,3.4014359 3.9172927,3.3294076 4.1146953,3.2325882 4.5486214,3.0197622 4.4630105,3.0259882 6.9620651,3.0255134 l 2.2308823,-4.238e-4 0.032107,-0.09319 C 9.2786237,2.7764156 9.4689978,2.4309574 9.596876,2.2571825 10.1709,1.4771351 11.061388,1.0179211 12,1.0179211 c 0.804015,0 1.598111,0.3459176 2.151069,0.9370316 0.217113,0.2320945 0.46623,0.6069627 0.575516,0.8660293 l 0.08005,0.1897707 2.302774,0.014337 2.302774,0.014337 0.18638,0.066966 c 0.344848,0.1239036 0.51996,0.2356518 0.791854,0.5053236 0.216153,0.2143857 0.281697,0.3014307 0.378739,0.502979 0.215857,0.448316 0.204854,0.2443708 0.205328,3.8058888 l 4.23e-4,3.1894009 0.204422,0.222785 c 0.74853,0.815769 1.315901,1.868963 1.586728,2.945393 0.161078,0.640224 0.200821,0.98098 0.200821,1.721837 0,0.745088 -0.04055,1.09269 -0.201177,1.724539 -0.123559,0.486034 -0.257428,0.845558 -0.500278,1.343561 -0.346805,0.711184 -0.766708,1.298715 -1.33266,1.864666 -1.037571,1.037571 -2.314526,1.69895 -3.771476,1.953376 -0.520654,0.09092 -1.464634,0.116966 -1.959417,0.05406 z m 1.772165,-2.020943 c 2.002901,-0.404626 3.541155,-1.947533 3.948862,-3.96081 0.05741,-0.283485 0.06635,-0.412613 0.06635,-0.958449 0,-0.545836 -0.0089,-0.674964 -0.06635,-0.958449 -0.409418,-2.021722 -1.943497,-3.554975 -3.967092,-3.964957 -0.280503,-0.05683 -0.411325,-0.06584 -0.955808,-0.06584 -0.544483,0 -0.675305,0.009 -0.955808,0.06584 -2.023595,0.409982 -3.557674,1.943235 -3.967092,3.964957 -0.05741,0.283485 -0.06635,0.412613 -0.06635,0.958449 0,0.708255 0.0442,1.013728 0.227763,1.574096 0.556853,1.699923 2.0514,3.017744 3.788698,3.340695 0.460299,0.08557 0.438454,0.084 1.058808,0.07569 0.455568,-0.0061 0.638146,-0.02075 0.888016,-0.07123 z M 9.6604072,18.917563 C 9.419405,18.359736 9.288476,17.967688 9.1785878,17.474824 9.029711,16.80709 8.9816642,16.037908 9.0476966,15.379382 c 0.016377,-0.163319 0.036601,-0.319525 0.044943,-0.347124 0.014252,-0.04715 -0.0481,-0.05018 -1.0333597,-0.05018 H 7.0107527 v -0.989247 -0.989248 l 1.3405018,-4.41e-4 1.3405018,-4.42e-4 0.1539226,-0.290072 c 0.2923281,-0.550902 0.7076911,-1.127066 1.1183791,-1.55134 l 0.159595,-0.164874 H 9.0672029 7.0107527 V 10.007166 9.0179191 h 4.6955163 c 5.104007,0 5.039939,-0.00178 5.768555,0.1606667 0.492864,0.1098882 0.884912,0.2408172 1.442739,0.4818194 l 0.107527,0.046456 V 7.3408846 4.9749084 H 18.007168 16.989247 V 5.9784926 6.9820768 H 12 7.0107527 V 5.9784926 4.9749084 H 5.9928315 4.9749104 v 7.0250896 7.02509 H 7.3408866 9.7068628 L 9.6604072,18.917561 Z M 12.430108,4.9143272 C 12.636063,4.8176582 12.818606,4.6363819 12.913223,4.4345629 12.978758,4.2947751 12.989247,4.2348181 12.989247,4 c 0,-0.2347314 -0.0105,-0.2947971 -0.07593,-0.4343502 C 12.816629,3.3594134 12.640587,3.1833707 12.43435,3.0866799 12.294797,3.0212526 12.234731,3.0107527 12,3.0107527 c -0.234731,0 -0.294797,0.0105 -0.43435,0.075927 -0.345612,0.1620351 -0.546154,0.4715196 -0.56395,0.8703093 -0.02025,0.4537879 0.201651,0.803795 0.621317,0.9800178 0.225917,0.094865 0.57772,0.084979 0.807091,-0.02268 z"
     id="path1627" />
  <path
     style="fill:#fafafa;stroke-width:0.0286738"
     d="M 16.807734,18.060929 15.010753,16.986775 V 14.493388 12 h 0.731182 0.731183 l 6.04e-4,2.129032 6.04e-4,2.129033 1.431465,0.844073 c 0.859588,0.506863 1.423878,0.856251 1.412475,0.874552 -0.01044,0.01676 -0.175266,0.284259 -0.36627,0.594436 l -0.347281,0.563957 z"
     id="path1629" />
</svg>
