<?xml version="1.0" encoding="UTF-8" standalone="no"?>
<svg
   viewBox="0 0 24 24"
   version="1.1"
   id="svg1678"
   sodipodi:docname="cogs.svg"
   inkscape:version="1.2.2 (b0a8486541, 2022-12-01)"
   xmlns:inkscape="http://www.inkscape.org/namespaces/inkscape"
   xmlns:sodipodi="http://sodipodi.sourceforge.net/DTD/sodipodi-0.dtd"
   xmlns="http://www.w3.org/2000/svg"
   xmlns:svg="http://www.w3.org/2000/svg">
  <defs
     id="defs1682" />
  <sodipodi:namedview
     id="namedview1680"
     pagecolor="#ffffff"
     bordercolor="#000000"
     borderopacity="0.25"
     inkscape:showpageshadow="2"
     inkscape:pageopacity="0.0"
     inkscape:pagecheckerboard="0"
     inkscape:deskcolor="#d1d1d1"
     showgrid="false"
     inkscape:zoom="34.875"
     inkscape:cx="11.985663"
     inkscape:cy="12.028674"
     inkscape:window-width="1920"
     inkscape:window-height="1007"
     inkscape:window-x="0"
     inkscape:window-y="0"
     inkscape:window-maximized="1"
     inkscape:current-layer="svg1678" />
  <title
     id="title1674">cogs</title>
  <path
     d="M15.9,18.45C17.25,18.45 18.35,17.35 18.35,16C18.35,14.65 17.25,13.55 15.9,13.55C14.54,13.55 13.45,14.65 13.45,16C13.45,17.35 14.54,18.45 15.9,18.45M21.1,16.68L22.58,17.84C22.71,17.95 22.75,18.13 22.66,18.29L21.26,20.71C21.17,20.86 21,20.92 20.83,20.86L19.09,20.16C18.73,20.44 18.33,20.67 17.91,20.85L17.64,22.7C17.62,22.87 17.47,23 17.3,23H14.5C14.32,23 14.18,22.87 14.15,22.7L13.89,20.85C13.46,20.67 13.07,20.44 12.71,20.16L10.96,20.86C10.81,20.92 10.62,20.86 10.54,20.71L9.14,18.29C9.05,18.13 9.09,17.95 9.22,17.84L10.7,16.68L10.65,16L10.7,15.31L9.22,14.16C9.09,14.05 9.05,13.86 9.14,13.71L10.54,11.29C10.62,11.13 10.81,11.07 10.96,11.13L12.71,11.84C13.07,11.56 13.46,11.32 13.89,11.15L14.15,9.29C14.18,9.13 14.32,9 14.5,9H17.3C17.47,9 17.62,9.13 17.64,9.29L17.91,11.15C18.33,11.32 18.73,11.56 19.09,11.84L20.83,11.13C21,11.07 21.17,11.13 21.26,11.29L22.66,13.71C22.75,13.86 22.71,14.05 22.58,14.16L21.1,15.31L21.15,16L21.1,16.68M6.69,8.07C7.56,8.07 8.26,7.37 8.26,6.5C8.26,5.63 7.56,4.92 6.69,4.92A1.58,1.58 0 0,0 5.11,6.5C5.11,7.37 5.82,8.07 6.69,8.07M10.03,6.94L11,7.68C11.07,7.75 11.09,7.87 11.03,7.97L10.13,9.53C10.08,9.63 9.96,9.67 9.86,9.63L8.74,9.18L8,9.62L7.81,10.81C7.79,10.92 7.7,11 7.59,11H5.79C5.67,11 5.58,10.92 5.56,10.81L5.4,9.62L4.64,9.18L3.5,9.63C3.41,9.67 3.3,9.63 3.24,9.53L2.34,7.97C2.28,7.87 2.31,7.75 2.39,7.68L3.34,6.94L3.31,6.5L3.34,6.06L2.39,5.32C2.31,5.25 2.28,5.13 2.34,5.03L3.24,3.47C3.3,3.37 3.41,3.33 3.5,3.37L4.63,3.82L5.4,3.38L5.56,2.19C5.58,2.08 5.67,2 5.79,2H7.59C7.7,2 7.79,2.08 7.81,2.19L8,3.38L8.74,3.82L9.86,3.37C9.96,3.33 10.08,3.37 10.13,3.47L11.03,5.03C11.09,5.13 11.07,5.25 11,5.32L10.03,6.06L10.06,6.5L10.03,6.94Z"
     id="path1676" />
  <path
     style="fill:#fafafa;stroke-width:0.0286738"
     d="M 5.6879877,10.953724 C 5.6464886,10.930845 5.605079,10.892696 5.5959667,10.86895 5.5868542,10.845203 5.546088,10.577072 5.5053755,10.273102 5.4646627,9.9691326 5.4258262,9.6939673 5.4190718,9.6616241 5.4106896,9.6214833 5.2852175,9.5328358 5.0237694,9.3823372 L 4.6407473,9.1618566 4.0601857,9.3909643 C 3.7408768,9.5169732 3.4505708,9.6200717 3.4150612,9.6200717 c -0.03551,0 -0.090517,-0.029032 -0.1222399,-0.064516 C 3.261099,9.5200717 3.0330433,9.1398148 2.7860309,8.7105402 2.4801571,8.1789723 2.3369176,7.9026638 2.3369176,7.8442022 c 0,-0.095576 0.059328,-0.1505773 0.6666178,-0.6180087 L 3.3383116,6.9685161 3.3381109,6.5027458 3.3379102,6.0369758 2.887594,5.6885012 C 2.3719247,5.2894549 2.3369176,5.2551211 2.3369176,5.1484206 2.3369176,5.0373451 3.2527087,3.4542166 3.3488862,3.39903 3.4175672,3.359621 3.456564,3.371031 4.0226716,3.5961791 4.3531583,3.7276178 4.6357702,3.8303124 4.650698,3.8243893 4.7981472,3.7658843 5.3891168,3.3990469 5.4071375,3.3548387 c 0.012857,-0.031541 0.05728,-0.3154122 0.098717,-0.6308244 0.06295,-0.4791636 0.085254,-0.5840869 0.1356195,-0.6379928 0.060218,-0.064451 0.061262,-0.064516 1.032076,-0.064516 0.603432,0 0.9924373,0.011046 1.0262489,0.029142 0.029948,0.016028 0.067961,0.077318 0.084473,0.1362007 0.022485,0.080182 0.2013913,1.1420827 0.2013913,1.1953571 0,0.00498 0.1686156,0.1093115 0.3747013,0.2318528 L 8.7350658,3.83686 9.3217058,3.6030178 c 0.322652,-0.1286132 0.6098518,-0.2338422 0.6382217,-0.2338422 0.02837,0 0.078038,0.029032 0.1103705,0.064516 0.09902,0.1086605 0.983465,1.6709261 0.983465,1.7371635 0,0.082435 -0.02711,0.1072557 -0.563532,0.5159834 l -0.460693,0.3510237 0.0032,0.4626451 0.0032,0.4626452 0.482256,0.3708579 c 0.26524,0.2039716 0.4965,0.4021202 0.513909,0.44033 0.02492,0.0547 0.02138,0.091009 -0.01664,0.1707542 -0.101976,0.2138446 -0.916302,1.605085 -0.959425,1.6391346 -0.080115,0.063258 -0.1693121,0.04021 -0.7503635,-0.1938856 L 8.7353649,9.1606162 8.3676823,9.3806621 C 8.1654572,9.5016872 7.9971986,9.6024897 7.9937746,9.6046678 c -0.00342,0.00218 -0.052186,0.2871799 -0.1083595,0.6333372 -0.081462,0.501994 -0.1137268,0.640985 -0.1594111,0.686726 -0.054697,0.05476 -0.1001953,0.05765 -1.0099203,0.06397 -0.7877577,0.0055 -0.9657023,-5.79e-4 -1.028096,-0.03498 z M 7.1069723,8.0262598 C 7.6568811,7.8844768 8.0947174,7.4312582 8.2279811,6.865867 8.4127206,6.0820817 7.9773614,5.2719194 7.2246844,4.9988267 7.0170833,4.9235031 6.5776083,4.8962692 6.3459088,4.9443699 5.7569276,5.066642 5.2592267,5.5698672 5.1315911,6.1721657 c -0.052038,0.2455599 -0.051719,0.4006105 0.00134,0.6522071 0.1201029,0.5695185 0.5753677,1.0513267 1.1358518,1.2020751 0.2081554,0.055986 0.6206772,0.055893 0.8381909,-2.007e-4 z"
     id="path1684" />
  <path
     style="fill:#fafafa;stroke-width:0.0286738"
     d="m 14.354019,22.945814 c -0.159573,-0.08201 -0.173315,-0.131871 -0.314064,-1.139628 L 13.90681,20.852872 13.591398,20.690637 C 13.250231,20.515156 13.10184,20.425311 12.865619,20.251206 l -0.152303,-0.112253 -0.901505,0.360631 c -0.495828,0.198347 -0.93697,0.360583 -0.980314,0.360524 -0.169688,-2.3e-4 -0.236529,-0.08188 -0.636358,-0.777359 -0.2120287,-0.36881 -0.5442867,-0.94663 -0.7383514,-1.284045 -0.1940647,-0.337416 -0.3528449,-0.643261 -0.3528449,-0.679655 0,-0.146765 0.089216,-0.234116 0.840855,-0.823272 l 0.7713873,-0.604635 -0.02058,-0.25955 c -0.01132,-0.142752 -0.01727,-0.38213 -0.01324,-0.53195 0.004,-0.149821 0.0086,-0.349536 0.01015,-0.443812 l 0.0028,-0.17141 -0.7455202,-0.579121 C 9.5397849,14.386783 9.1817884,14.089724 9.1542728,14.045168 9.0520876,13.8797 8.9923301,14.001338 10.215147,11.885727 c 0.204961,-0.354607 0.406612,-0.670091 0.448113,-0.701076 0.0415,-0.03098 0.117309,-0.05578 0.168464,-0.05511 0.05115,6.76e-4 0.49472,0.165036 0.985702,0.365244 l 0.892694,0.364016 0.239922,-0.172848 c 0.131957,-0.09507 0.400903,-0.25498 0.597656,-0.355364 l 0.357734,-0.182515 0.133673,-0.953573 c 0.141318,-1.0081149 0.155154,-1.0582154 0.314914,-1.1403189 0.05205,-0.026747 0.430497,-0.035497 1.545623,-0.035735 1.42504,-3.045e-4 1.479983,0.00168 1.570477,0.056859 0.05158,0.031446 0.106688,0.086237 0.122472,0.1217566 0.01578,0.03552 0.09022,0.4890673 0.165419,1.0078823 l 0.136723,0.943301 0.314282,0.161394 c 0.33047,0.169708 0.586234,0.325724 0.766112,0.467329 l 0.107742,0.08482 0.895842,-0.366464 c 0.508415,-0.207978 0.936064,-0.366582 0.988849,-0.366738 0.05115,-1.52e-4 0.126686,0.02489 0.16785,0.05564 0.10394,0.07765 1.533746,2.549125 1.550195,2.67957 0.0083,0.06574 -0.0052,0.12824 -0.03898,0.181191 -0.0284,0.04446 -0.387123,0.341891 -0.797159,0.660962 l -0.745519,0.580131 0.0026,0.156241 c 0.0014,0.08593 0.0065,0.278823 0.01135,0.428644 0.0048,0.149821 -8.77e-4,0.395058 -0.01265,0.544973 l -0.0214,0.272571 0.764919,0.600447 c 0.453134,0.355701 0.782799,0.635022 0.808784,0.685272 0.02537,0.04906 0.03769,0.122248 0.02923,0.173577 -0.0081,0.04881 -0.343504,0.656493 -0.74545,1.3504 -0.761255,1.314206 -0.794937,1.360993 -0.980741,1.36232 -0.04731,3.38e-4 -0.487952,-0.161812 -0.9792,-0.360332 l -0.893179,-0.360947 -0.179043,0.131805 c -0.183999,0.135452 -0.619752,0.388999 -0.872693,0.507785 l -0.142752,0.06704 -0.134853,0.928386 c -0.07417,0.510612 -0.150837,0.966977 -0.170374,1.014144 -0.01954,0.04717 -0.07526,0.10999 -0.123829,0.139607 -0.08339,0.05086 -0.170436,0.05383 -1.565009,0.05353 -1.115126,-2.29e-4 -1.493578,-0.009 -1.545623,-0.03574 z m 2.160926,-4.564867 c 0.476803,-0.12095 0.970975,-0.428255 1.267099,-0.787955 0.770502,-0.93592 0.772851,-2.235316 0.0058,-3.18032 -0.271554,-0.334532 -0.816039,-0.680858 -1.25733,-0.799738 -0.262448,-0.0707 -0.998852,-0.07076 -1.261649,-8.6e-5 -0.288058,0.07746 -0.734575,0.311516 -0.964378,0.505521 -0.3681,0.310759 -0.65755,0.770231 -0.788941,1.252363 -0.08861,0.325169 -0.08861,0.933384 0,1.258553 0.184024,0.675268 0.631264,1.234267 1.23719,1.546346 0.413116,0.212774 0.646709,0.268915 1.136109,0.273052 0.281787,0.0024 0.400305,-0.01044 0.626148,-0.06773 z"
     id="path1686" />
</svg>
