<?xml version="1.0" encoding="UTF-8" standalone="no"?>
<svg
   viewBox="0 0 24 24"
   version="1.1"
   id="svg1795"
   sodipodi:docname="history.svg"
   inkscape:version="1.2.2 (b0a8486541, 2022-12-01)"
   xmlns:inkscape="http://www.inkscape.org/namespaces/inkscape"
   xmlns:sodipodi="http://sodipodi.sourceforge.net/DTD/sodipodi-0.dtd"
   xmlns="http://www.w3.org/2000/svg"
   xmlns:svg="http://www.w3.org/2000/svg">
  <defs
     id="defs1799" />
  <sodipodi:namedview
     id="namedview1797"
     pagecolor="#ffffff"
     bordercolor="#000000"
     borderopacity="0.25"
     inkscape:showpageshadow="2"
     inkscape:pageopacity="0.0"
     inkscape:pagecheckerboard="0"
     inkscape:deskcolor="#d1d1d1"
     showgrid="false"
     inkscape:zoom="34.875"
     inkscape:cx="11.985663"
     inkscape:cy="12.028674"
     inkscape:window-width="1920"
     inkscape:window-height="1007"
     inkscape:window-x="0"
     inkscape:window-y="0"
     inkscape:window-maximized="1"
     inkscape:current-layer="svg1795" />
  <title
     id="title1791">history</title>
  <path
     d="M13.5,8H12V13L16.28,15.54L17,14.33L13.5,12.25V8M13,3A9,9 0 0,0 4,12H1L4.96,16.03L9,12H6A7,7 0 0,1 13,5A7,7 0 0,1 20,12A7,7 0 0,1 13,19C11.07,19 9.32,18.21 8.06,16.94L6.64,18.36C8.27,20 10.5,21 13,21A9,9 0 0,0 22,12A9,9 0 0,0 13,3"
     id="path1793" />
  <path
     style="fill:#fafafa;stroke-width:0.0286738"
     d="M 12.229391,20.957751 C 11.491334,20.87408 10.972683,20.772897 10.396627,20.600202 9.0887114,20.208101 7.8038139,19.459968 6.8599372,18.54096 l -0.1938265,-0.188719 0.6928992,-0.693332 0.6928989,-0.693333 0.260784,0.234734 c 1.617054,1.455522 3.7483752,2.073552 5.8916712,1.708437 1.150862,-0.196051 2.282496,-0.709632 3.200654,-1.452584 1.338276,-1.082902 2.21162,-2.578288 2.51669,-4.30921 0.05512,-0.312718 0.06315,-0.4608 0.06299,-1.16129 -2.01e-4,-0.898366 -0.02946,-1.136666 -0.228861,-1.863799 C 19.044324,7.5272201 16.854302,5.5426744 14.204364,5.0912526 10.984001,4.5426578 7.8357517,6.249928 6.5510756,9.2415696 6.2286136,9.9924906 6.0452539,10.790963 5.991711,11.677419 L 5.9722268,12 H 7.4734919 8.9747567 L 6.971387,14.003523 4.9680169,16.007047 4.031428,15.057287 C 3.5163041,14.534919 2.6322894,13.636559 2.0669507,13.060932 L 1.0390623,12.014337 2.5266996,12 4.0143369,11.98566 4.0324629,11.555553 c 0.1659045,-3.9366889 3.000363,-7.3597885 6.8624161,-8.2875565 0.691079,-0.1660154 1.121772,-0.2185989 1.922325,-0.2346969 0.555921,-0.011179 0.810183,-0.00378 1.132617,0.032944 1.735625,0.197698 3.289176,0.8362752 4.648093,1.9105686 0.370872,0.2931931 1.119212,1.0388896 1.414081,1.4090851 0.834614,1.0478222 1.460246,2.3460341 1.752063,3.6356047 0.161834,0.715158 0.197331,1.071061 0.197331,1.978495 0,0.911557 -0.03638,1.273134 -0.199777,1.985281 -0.299302,1.304522 -0.914358,2.580187 -1.749617,3.628819 -0.294806,0.370117 -1.042477,1.115159 -1.417013,1.412032 -1.039295,0.823788 -2.34262,1.451434 -3.599141,1.733248 -0.697463,0.156428 -1.030934,0.192176 -1.877561,0.201275 -0.433692,0.0047 -0.833692,0.0034 -0.888889,-0.0029 z"
     id="path1801" />
  <path
     style="fill:#fafafa;stroke-width:0.0286738"
     d="m 14.121864,14.24109 -2.107527,-1.253294 -0.0073,-2.486729 -0.0073,-2.4867301 h 0.745678 0.745678 l 0.0011,2.1290321 0.0011,2.129032 1.742234,1.031544 1.742234,1.031543 -0.345491,0.580899 c -0.19002,0.319495 -0.358394,0.580246 -0.374164,0.579448 -0.01577,-7.98e-4 -0.977061,-0.565433 -2.136201,-1.254745 z"
     id="path1803" />
</svg>
