<?xml version="1.0" encoding="UTF-8" standalone="no"?>
<!-- Generator: Adobe Illustrator 11 Build 196, SVG Export Plug-In . SVG Version: 6.0.0 Build 78)  -->

<svg
   id="svg2"
   xml:space="preserve"
   viewBox="0 0 308.802 271.588"
   inkscape:output_extension="org.inkscape.output.svg.inkscape"
   sodipodi:docname="logo.svg"
   i:rulerOrigin="48 119.8896"
   i:viewOrigin="119.9561 477.582"
   overflow="visible"
   inkscape:version="1.2.2 (b0a8486541, 2022-12-01)"
   i:pageBounds="-48 722 547.2754 -119.8896"
   sodipodi:version="0.32"
   enable-background="new 0 0 308.802 271.588"
   version="1.1"
   xmlns:inkscape="http://www.inkscape.org/namespaces/inkscape"
   xmlns:sodipodi="http://sodipodi.sourceforge.net/DTD/sodipodi-0.dtd"
   xmlns="http://www.w3.org/2000/svg"
   xmlns:svg="http://www.w3.org/2000/svg"
   xmlns:rdf="http://www.w3.org/1999/02/22-rdf-syntax-ns#"
   xmlns:cc="http://creativecommons.org/ns#"
   xmlns:dc="http://purl.org/dc/elements/1.1/"
   xmlns:i="http://ns.adobe.com/AdobeIllustrator/10.0/"><defs
   id="defs7" />
  <sodipodi:namedview
   id="base"
   bordercolor="#666666"
   inkscape:pageshadow="2"
   guidetolerance="10.0"
   pagecolor="#ffffff"
   gridtolerance="10.0"
   inkscape:zoom="2.1349527"
   objecttolerance="10.0"
   borderopacity="1.0"
   inkscape:current-layer="svg2"
   inkscape:cx="220.61379"
   inkscape:cy="91.102723"
   inkscape:window-y="0"
   inkscape:window-x="0"
   inkscape:window-height="1007"
   inkscape:pageopacity="0.0"
   inkscape:window-width="1920"
   inkscape:showpageshadow="2"
   inkscape:pagecheckerboard="0"
   inkscape:deskcolor="#d1d1d1"
   showgrid="false"
   inkscape:window-maximized="1" />
  <path
   id="path13"
   d="m127.6 48.194c-0.39 0.517-0.62 1.156-0.64 1.859-0.03 1.861 1.51 3.465 3.44 3.586 1.9 0.118 3.47-1.239 3.56-3.05-0.8-0.005-1.67-0.121-2.56-0.368-1.55-0.431-2.88-1.171-3.8-2.027zm14.44 2.028c-0.89 0.247-1.75 0.363-2.55 0.368 0.08 1.811 1.65 3.168 3.55 3.05 1.93-0.121 3.47-1.725 3.44-3.586-0.01-0.703-0.25-1.343-0.64-1.859-0.92 0.855-2.24 1.595-3.8 2.027zm145.67 40.028c-11.43 3.441-27.11 5.767-42.76 0.469-17.78-6.021-31.53-20.624-40.87-43.405-17.33-42.294-45.94-47.78-61.45-47.285-22.05 0.703-41.14 13.846-45.127 25.68-7.709 22.86-57.183 39.357-72.102 43.858 137.41 73.533 228.07 39.893 262.31 20.683zm-136.72-37.159c-0.05 2.748-0.95 5.25-2.46 7.287l7.41 5.767c0.67-0.615 1.58-0.967 2.58-0.904 1.98 0.123 3.56 1.819 3.52 3.787-0.03 1.801-1.4 3.201-3.15 3.331-0.18 1.83-1.75 3.182-3.63 3.063-1.98-0.123-3.56-1.817-3.53-3.786 0.02-0.769 0.28-1.465 0.71-2.021l-7.2-5.595c-0.19 5.641-3.8 9.962-8.15 9.691-4.34-0.271-7.78-5.004-7.8-10.634-0.31-0.209-0.6-0.432-0.89-0.661l-7.71 6.144c0.37 0.591 0.59 1.288 0.57 2.023-0.03 1.967-1.66 3.462-3.65 3.339-1.79-0.112-3.26-1.521-3.48-3.252-0.02 0-0.03 0.001-0.05 0-1.98-0.124-3.56-1.82-3.52-3.786 0.03-1.968 1.66-3.463 3.64-3.339 1.11 0.069 2.1 0.632 2.74 1.458l8.08-6.433c-1.3-2.142-2.03-4.619-1.99-7.225 0.03-1.425 0.28-2.782 0.73-4.044l-10.67-8.301c-0.56 1.247-1.85 2.067-3.34 1.975-1.98-0.123-3.56-1.819-3.53-3.786 0.04-1.967 1.67-3.462 3.65-3.339 0.19 0.012 0.37 0.041 0.54 0.078-0.11-0.357-0.17-0.734-0.16-1.123 0.03-1.968 1.67-3.463 3.65-3.341 1.98 0.124 3.56 1.82 3.52 3.787-0.01 0.87-0.34 1.647-0.87 2.233l9.75 7.59c2.61-2.88 6.56-4.58 10.94-4.307 3.21 0.2 6.15 1.427 8.48 3.32l7.86-6.259c-0.51-0.651-0.81-1.466-0.8-2.332 0.04-1.968 1.67-3.463 3.65-3.339 1.89 0.117 3.4 1.656 3.52 3.498 1.64 0.428 2.85 1.945 2.82 3.673-0.03 1.967-1.67 3.462-3.65 3.339-0.85-0.054-1.63-0.399-2.24-0.933l-7.81 6.223c1.26 2.124 1.97 4.568 1.92 7.134zm-31.75 64.909c0-3.13-0.97-6.03-2.63-8.43-6.02-1.52-12.07-3.23-18.168-5.12-5.201 2.3-8.832 7.5-8.832 13.55 0 8.18 6.634 14.82 14.82 14.82 8.18 0 14.81-6.64 14.81-14.82zm189.48 83.88c-3.32-3.32-53.11-60.86-53.11-60.86l29.87-9.96-36.32-20.87c-5.53 1.59-11.46 3.03-17.79 4.27-0.98 0.19-1.97 0.36-2.96 0.54-1.28 8.67-5.39 20.57-17.17 31.18l-13.46-12.27c3.89-4.1 6.97-9.18 8.78-15.02 0.11-0.35 0.21-0.7 0.31-1.05-20.85 1.74-42.61 0.76-64.98-2.96-0.91-0.15-1.82-0.31-2.73-0.47 1.64 13.42 10.44 25.07 23.58 29.15 11.38 3.54 23.31 0.55 32.12-6.9l13.3 12.12c-10.39 8.24-25.88 15.43-48.92 19.3-3.77 11.05-14.74 19.05-27.68 19.05-13.35 0-24.6-8.51-28.01-20.11-27.101-7.7-39.418-26.26-44.956-40.1l-58.594 55.04 46.474 15.49-12.172 36.51 50.899-7.74 6.64 24.34 23.239-30.98 35.41 52.01 12.17-47.58 68.6 22.13-16.6-52.01s97.38 11.07 94.06 7.75zm-173.86 5.8s47.49-31.66 75.42-28.86l-75.42 28.86zm-54.542-84.43c0 11.88 9.625 21.5 21.502 21.5 8.7 0 16.2-5.18 19.58-12.62-3.89 5.56-10.34 9.19-17.63 9.19-11.875 0-21.5-9.62-21.5-21.49 0-3.17 0.69-6.17 1.919-8.88-2.437 3.49-3.871 7.73-3.871 12.3z" />
<metadata
   id="metadata4"><rdf:RDF><cc:Work><dc:format>image/svg+xml</dc:format><dc:type
         rdf:resource="http://purl.org/dc/dcmitype/StillImage" /><cc:license
         rdf:resource="http://creativecommons.org/licenses/publicdomain/" /><dc:publisher><cc:Agent
           rdf:about="http://openclipart.org/"><dc:title>Openclipart</dc:title></cc:Agent></dc:publisher><dc:title>pirate</dc:title><dc:date>2007-04-04T05:20:44</dc:date><dc:description>it's just a pirate</dc:description><dc:source>https://openclipart.org/detail/3769/pirate-by-aledone</dc:source><dc:creator><cc:Agent><dc:title>aledone</dc:title></cc:Agent></dc:creator><dc:subject><rdf:Bag><rdf:li>cartoon</rdf:li><rdf:li>pirate</rdf:li><rdf:li>sea</rdf:li><rdf:li>skull</rdf:li></rdf:Bag></dc:subject></cc:Work><cc:License
       rdf:about="http://creativecommons.org/licenses/publicdomain/"><cc:permits
         rdf:resource="http://creativecommons.org/ns#Reproduction" /><cc:permits
         rdf:resource="http://creativecommons.org/ns#Distribution" /><cc:permits
         rdf:resource="http://creativecommons.org/ns#DerivativeWorks" /></cc:License></rdf:RDF></metadata><path
   style="fill:#fafafa;stroke-width:0.66241"
   d="M 163.61522,113.53003 C 138.90561,111.22302 112.39465,105.26758 86.41267,96.187156 71.300249,90.905531 59.544538,85.919354 42.063022,77.376274 l -15.56663,-7.607293 9.936147,-3.481235 c 17.679434,-6.194187 31.920226,-12.830068 42.725432,-19.90907 7.159535,-4.69055 15.244865,-12.964232 17.487679,-17.895055 3.305934,-7.268107 4.01683,-8.404144 7.46461,-11.928804 4.32638,-4.422847 8.04907,-6.983055 14.95167,-10.282732 23.74209,-11.3495252 50.96217,-5.71453248 68.29601,14.138369 6.85966,7.856548 9.75133,12.821253 18.94433,32.525476 6.84592,14.673522 16.83832,26.631291 27.56277,32.983993 10.83227,6.416579 24.68594,9.282071 37.86462,7.831923 3.66664,-0.403467 7.64873,-1.015242 8.8491,-1.359503 5.81929,-1.668955 0.52472,1.276748 -11.33217,6.304783 -16.99678,7.207664 -40.70959,12.909754 -61.91232,14.887714 -8.46117,0.78933 -35.03462,0.75601 -43.71905,-0.0548 z m -3.97831,-40.626545 c 3.25905,-3.212907 3.50008,-3.97589 1.95352,-6.183907 -0.75793,-1.082094 -1.6981,-1.472213 -3.548,-1.472213 -1.8626,0 -3.31642,-0.61054 -5.59292,-2.348777 -1.69186,-1.291827 -3.0761,-2.447762 -3.0761,-2.568743 0,-0.120981 0.47871,-1.365677 1.0638,-2.765991 1.02344,-2.449441 0.99554,-5.750807 -0.0862,-10.201553 -0.34427,-1.416483 0.0975,-2.036742 3.05382,-4.288033 2.55163,-1.943085 3.96381,-2.578776 5.39517,-2.428635 2.22415,0.233299 4.48404,-1.456188 4.48404,-3.352254 0,-0.688745 -0.67069,-1.944195 -1.49043,-2.789889 -0.81973,-0.845694 -1.81856,-2.099003 -2.21963,-2.785132 -0.86106,-1.47306 -4.56275,-2.021873 -5.93815,-0.88039 -0.5227,0.433793 -0.95035,1.759603 -0.95035,2.946245 0,1.739102 -0.54599,2.599605 -2.81524,4.436989 -4.03635,3.268169 -4.0237,3.264777 -6.83179,1.833133 -3.79147,-1.933001 -9.80118,-1.776139 -13.82007,0.360724 -3.43929,1.828689 -3.2235,1.879941 -8.16297,-1.938845 -3.04155,-2.35148 -3.47765,-2.984612 -3.47765,-5.048914 0,-2.943795 -0.96971,-3.950064 -3.80654,-3.950064 -1.75936,0 -2.44803,0.402962 -3.33757,1.952893 -0.61645,1.074091 -1.76906,2.248258 -2.56138,2.60926 -2.14924,0.97926 -2.59976,3.220257 -1.06306,5.287995 1.50218,2.0213 4.21802,2.587277 5.42669,1.130915 0.72856,-0.877858 1.48238,-0.506556 5.78864,2.85124 l 4.95099,3.860533 0.18987,4.567381 c 0.10443,2.512059 0.37788,5.163549 0.60767,5.8922 0.32781,1.039508 -0.2851,1.862936 -2.84601,3.823521 -2.88453,2.208355 -3.56342,2.450789 -5.8424,2.086365 -1.93193,-0.308928 -2.85634,-0.134615 -3.68601,0.695059 -1.47436,1.474357 -1.4036,4.051864 0.15054,5.484034 5.76276,5.310473 6.11256,5.465112 8.53082,3.771297 0.98367,-0.688992 1.48157,-1.733116 1.50043,-3.146446 0.0231,-1.733427 0.60992,-2.563685 3.25069,-4.59931 1.77237,-1.366221 3.36375,-2.484037 3.5364,-2.484037 0.17266,0 0.66316,1.386956 1.09001,3.082127 1.10898,4.404177 4.36989,7.51643 7.87545,7.51643 3.39723,0 6.42236,-2.425487 7.49646,-6.010508 0.42857,-1.430448 0.91271,-2.60082 1.07585,-2.60082 0.16316,0 1.45735,0.919299 2.876,2.042892 1.94077,1.537122 2.57936,2.521099 2.57936,3.974459 0,2.224776 2.04236,4.581206 3.97061,4.581206 0.72654,0 2.66409,-1.324097 4.30566,-2.942437 z"
   id="path182" /><path
   style="fill:#fafafa;stroke-width:0.66241"
   d="m 101.73659,132.03906 c -10.705853,-1.89947 -15.29099,-14.76871 -8.209493,-23.04185 3.769858,-4.40423 3.813355,-4.40913 13.929863,-1.56703 l 9.00502,2.52985 1.20574,2.64964 c 2.13875,4.69994 1.28204,10.28823 -2.23051,14.54956 -3.28942,3.99064 -8.41757,5.81716 -13.70062,4.87983 z"
   id="path184" /><path
   style="fill:#fafafa;stroke-width:0.66241"
   d="m 133.11039,245.3269 c -9.48264,-13.92267 -17.53152,-25.41073 -17.88642,-25.52903 -0.35488,-0.11829 -5.6905,6.52431 -11.85692,14.76135 -8.955444,11.96259 -11.304905,14.72437 -11.675,13.72391 -0.254836,-0.68889 -1.733149,-5.93649 -3.285136,-11.66135 -2.404097,-8.86805 -3.011103,-10.40883 -4.100634,-10.40883 -1.134404,0 -41.954976,6.07014 -47.347427,7.0407 l -2.123325,0.38217 6.002283,-17.99354 c 3.301255,-9.89646 5.860601,-18.13524 5.687436,-18.3084 -0.173166,-0.17317 -10.414103,-3.68292 -22.757637,-7.79944 -12.343535,-4.11653 -22.4427904,-7.65545 -22.4427904,-7.86427 0,-0.20882 12.8176294,-12.43265 28.4836214,-27.16406 l 28.483621,-26.78439 2.980845,5.71601 c 1.639464,3.1438 4.071388,7.1957 5.404277,9.00421 3.077913,4.17624 10.529388,11.53572 14.8109,14.62803 4.110657,2.96892 14.101081,7.9274 18.636666,9.2498 2.78758,0.81275 3.49405,1.32367 3.85574,2.78852 1.32297,5.35788 7.96534,12.35562 14.80309,15.59506 4.23331,2.00556 4.78271,2.09621 12.70477,2.09621 7.94204,0 8.46291,-0.0866 12.75703,-2.12067 5.5512,-2.62955 10.94725,-7.64528 13.62018,-12.66023 l 2.03372,-3.81565 4.52404,-0.77578 c 8.20324,-1.4067 20.93314,-5.46512 28.43048,-9.06393 7.33244,-3.51965 15.47408,-8.55477 15.47408,-9.5698 0,-0.2918 -3.02208,-3.24525 -6.71574,-6.56323 l -6.71574,-6.03267 -2.06119,1.57073 c -3.48575,2.65633 -10.24148,5.50523 -15.12386,6.37777 -13.35003,2.38578 -28.24291,-5.22248 -34.29771,-17.52154 -1.84711,-3.75202 -4.20957,-11.02166 -3.73576,-11.49547 0.10551,-0.10551 4.34223,0.38851 9.41495,1.09781 14.64225,2.04739 28.6859,2.86733 43.50282,2.53992 7.55975,-0.16705 13.745,-0.1983 13.745,-0.0694 0,1.12313 -4.27498,9.14736 -6.22587,11.68608 -1.3528,1.76043 -2.36796,3.47582 -2.2559,3.81198 0.11205,0.33617 3.17809,3.28617 6.81342,6.55556 l 6.60968,5.94435 2.55972,-2.46982 c 5.99117,-5.78075 11.61979,-15.54877 13.74273,-23.84939 0.70467,-2.75521 1.35504,-5.05579 1.44528,-5.1124 0.0902,-0.0566 3.29397,-0.74701 7.11938,-1.53423 3.82542,-0.78722 8.28754,-1.81882 9.91582,-2.29243 l 2.96052,-0.86112 17.39608,9.95939 c 9.56784,5.47766 17.40171,10.11388 17.40858,10.3027 0.007,0.18882 -6.17274,2.3854 -13.73249,4.8813 -7.55976,2.4959 -13.99274,4.76516 -14.29553,5.04281 -0.4401,0.40356 26.74391,32.30156 48.13128,56.47776 2.17911,2.46326 3.77845,4.66223 3.55408,4.8866 -0.80156,0.80155 -38.27845,-2.40498 -74.93191,-6.4112 -9.80946,-1.07217 -17.93592,-1.84886 -18.05881,-1.72598 -0.12288,0.12289 3.46094,11.73999 7.96406,25.81579 7.37061,23.03899 8.04884,25.55703 6.79784,25.23826 -0.7643,-0.19476 -15.99577,-5.08241 -33.84772,-10.86145 -17.85194,-5.77904 -32.64972,-10.30881 -32.88394,-10.06617 -0.23423,0.24264 -3.00232,10.57603 -6.15131,22.9631 -3.14899,12.38706 -5.79264,22.75594 -5.87476,23.04195 -0.0821,0.28602 -7.90786,-10.87124 -17.39049,-24.79391 z m 40.21639,-51.91692 c 19.79709,-7.56137 36.2928,-14.04106 36.65713,-14.3993 1.14883,-1.12966 -12.84443,-0.0311 -18.54748,1.45603 -12.76998,3.33 -31.99364,11.9039 -47.6935,21.27167 -8.48994,5.06575 -10.21483,6.33341 -7.84231,5.76344 0.78729,-0.18913 17.62906,-6.53046 37.42616,-14.09184 z"
   id="path186" /><path
   style="fill:#fafafa;stroke-width:0.165602"
   d="m 99.36147,144.55095 c -5.155302,-0.78468 -9.24637,-2.79474 -12.683331,-6.2317 -6.461494,-6.4615 -8.085016,-16.3204 -4.036043,-24.50905 0.347874,-0.70355 0.661621,-1.25005 0.697215,-1.21446 0.03559,0.0356 -0.08237,0.54094 -0.262151,1.12299 -1.208207,3.91172 -1.112697,8.97284 0.24627,13.04995 1.002851,3.0087 2.815602,5.90198 5.19108,8.28533 4.106388,4.11999 9.35883,6.28768 15.23543,6.28768 5.86961,0 10.93613,-2.05977 15.11552,-6.14516 0.89523,-0.8751 1.58622,-1.48301 1.53553,-1.35089 -0.29848,0.77781 -2.06145,3.01572 -3.56519,4.52563 -3.0434,3.05589 -6.50456,4.9407 -10.76743,5.86351 -1.21031,0.262 -5.6788,0.47265 -6.7069,0.31617 z"
   id="path188" /><path
   style="fill:#fafafa;stroke-width:0.165602"
   d="m 141.7557,53.370104 c -1.07118,-0.37978 -1.88451,-1.258306 -2.12875,-2.299366 -0.1,-0.426173 -0.0871,-0.432809 1.01735,-0.525404 1.34003,-0.112344 3.10246,-0.743569 4.31482,-1.545379 0.48674,-0.321914 0.90514,-0.561254 0.92978,-0.531868 0.51493,0.614144 0.56282,2.189604 0.0945,3.107655 -0.78473,1.538191 -2.68061,2.342866 -4.22767,1.794362 z"
   id="path190" /><path
   style="fill:#fafafa;stroke-width:0.165602"
   d="m 129.25271,53.23751 c -1.38366,-0.6463 -2.15283,-1.728391 -2.15283,-3.028659 0,-0.76944 0.27739,-1.770134 0.49068,-1.770134 0.0699,0 0.30479,0.139102 0.522,0.309117 1.18256,0.925581 3.72976,1.843715 5.11507,1.843715 0.67811,0 0.69468,0.01288 0.5856,0.455406 -0.48485,1.966866 -2.73032,3.045432 -4.56052,2.190555 z"
   id="path192" /></svg>
