<?xml version="1.0" encoding="UTF-8" standalone="no"?>
<svg
   viewBox="0 0 24 24"
   version="1.1"
   id="svg6"
   sodipodi:docname="magnify.svg"
   inkscape:version="1.2.2 (b0a8486541, 2022-12-01)"
   xmlns:inkscape="http://www.inkscape.org/namespaces/inkscape"
   xmlns:sodipodi="http://sodipodi.sourceforge.net/DTD/sodipodi-0.dtd"
   xmlns="http://www.w3.org/2000/svg"
   xmlns:svg="http://www.w3.org/2000/svg">
  <defs
     id="defs10" />
  <sodipodi:namedview
     id="namedview8"
     pagecolor="#ffffff"
     bordercolor="#000000"
     borderopacity="0.25"
     inkscape:showpageshadow="2"
     inkscape:pageopacity="0.0"
     inkscape:pagecheckerboard="0"
     inkscape:deskcolor="#d1d1d1"
     showgrid="false"
     showguides="true"
     inkscape:zoom="34.875"
     inkscape:cx="6.2939068"
     inkscape:cy="2.9103943"
     inkscape:window-width="1920"
     inkscape:window-height="1007"
     inkscape:window-x="0"
     inkscape:window-y="0"
     inkscape:window-maximized="1"
     inkscape:current-layer="svg6">
    <sodipodi:guide
       position="-0.033728159,0.006436912"
       orientation="0,-1"
       id="guide12"
       inkscape:locked="false" />
  </sodipodi:namedview>
  <title
     id="title2">magnify</title>
  <path
     style="fill:#404040;fill-opacity:1;stroke-width:0.039406"
     d="m 18.553688,20.59588 -3.416009,-3.420938 v -0.53375 -0.533749 l -0.1884,-0.185828 c -0.103614,-0.102214 -0.202029,-0.185826 -0.218683,-0.185826 -0.01666,0 -0.148949,0.09552 -0.293987,0.212264 -0.946031,0.761492 -2.345598,1.427925 -3.557791,1.69411 C 10.118656,17.809088 9.7659392,17.845356 8.9158617,17.844 7.9906318,17.842563 7.5018796,17.781922 6.6712819,17.565701 3.8039663,16.819275 1.4726589,14.650184 0.51105295,11.834111 0.16453183,10.819321 0.03942806,10.049905 0.03942806,8.9335117 c 0,-0.8972136 0.05969859,-1.380715 0.27373746,-2.2170008 C 0.55261673,5.780934 0.95251981,4.8772286 1.4852728,4.0677704 1.876869,3.472784 2.1341161,3.1594156 2.6715777,2.6226601 3.979119,1.3168366 5.5930233,0.48170759 7.4391645,0.15562954 8.0464758,0.04836194 9.2455118,0.01088577 9.8679528,0.07971698 11.882725,0.30251567 13.781982,1.2107632 15.201284,2.6301808 c 1.214401,1.2144988 2.089121,2.8157991 2.43082,4.449957 0.158404,0.7575598 0.194855,1.2066315 0.172447,2.1245032 -0.02091,0.856712 -0.06462,1.197262 -0.246499,1.920512 -0.298842,1.1884 -0.934767,2.474815 -1.6724,3.383106 l -0.204023,0.251225 0.189243,0.1924 0.189245,0.192402 h 0.533007 0.533007 l 3.435766,3.440387 3.435767,3.440388 -0.993921,0.995879 c -0.546655,0.547735 -1.002948,0.99588 -1.013983,0.99588 -0.01102,0 -1.557268,-1.539423 -3.436072,-3.42094 z m -8.358022,-5.569188 c 3.664829,-0.785238 5.788178,-4.50949 4.604976,-8.0769074 C 14.497563,6.0359864 14.019767,5.2695835 13.307355,4.5545002 12.60149,3.8459903 11.809147,3.3537789 10.88813,3.0516558 9.7331963,2.6728002 8.3495811,2.6482699 7.1835206,2.9859762 4.9740386,3.6258712 3.3048477,5.4503551 2.8480227,7.7248263 2.7455004,8.2352719 2.7094656,9.1368864 2.770605,9.6618727 c 0.1652174,1.4186733 0.7683015,2.6694603 1.7704324,3.6718493 0.9607633,0.961009 2.0763069,1.52693 3.4504474,1.75043 0.5201292,0.0846 1.6826102,0.05429 2.2041812,-0.05746 z"
     id="path865" />
</svg>
