<?xml version="1.0" encoding="UTF-8" standalone="no"?>
<svg
   viewBox="0 0 24 24"
   version="1.1"
   id="svg2260"
   sodipodi:docname="shield-account.svg"
   inkscape:version="1.2.2 (b0a8486541, 2022-12-01)"
   xmlns:inkscape="http://www.inkscape.org/namespaces/inkscape"
   xmlns:sodipodi="http://sodipodi.sourceforge.net/DTD/sodipodi-0.dtd"
   xmlns="http://www.w3.org/2000/svg"
   xmlns:svg="http://www.w3.org/2000/svg">
  <defs
     id="defs2264" />
  <sodipodi:namedview
     id="namedview2262"
     pagecolor="#ffffff"
     bordercolor="#000000"
     borderopacity="0.25"
     inkscape:showpageshadow="2"
     inkscape:pageopacity="0.0"
     inkscape:pagecheckerboard="0"
     inkscape:deskcolor="#d1d1d1"
     showgrid="false"
     inkscape:zoom="34.875"
     inkscape:cx="11.985663"
     inkscape:cy="12.028674"
     inkscape:window-width="1920"
     inkscape:window-height="1007"
     inkscape:window-x="0"
     inkscape:window-y="0"
     inkscape:window-maximized="1"
     inkscape:current-layer="svg2260" />
  <title
     id="title2256">shield-account</title>
  <path
     d="M12,1L3,5V11C3,16.55 6.84,21.74 12,23C17.16,21.74 21,16.55 21,11V5L12,1M12,5A3,3 0 0,1 15,8A3,3 0 0,1 12,11A3,3 0 0,1 9,8A3,3 0 0,1 12,5M17.13,17C15.92,18.85 14.11,20.24 12,20.92C9.89,20.24 8.08,18.85 6.87,17C6.53,16.5 6.24,16 6,15.47C6,13.82 8.71,12.47 12,12.47C15.29,12.47 18,13.79 18,15.47C17.76,16 17.47,16.5 17.13,17Z"
     id="path2258" />
  <path
     style="fill:#fafafa;stroke-width:0.0286738"
     d="M 11.62724,22.882528 C 9.0227174,22.11754 6.7867461,20.433844 5.190777,18.035842 4.0347698,16.298899 3.3672265,14.50249 3.0917106,12.387097 3.0435977,12.017689 3.0394265,11.707025 3.0394265,8.4930294 V 5.0003957 L 7.5197133,3.0091809 12,1.0179662 16.480287,3.00918 20.960573,5.0003937 v 3.4782979 c 0,3.8036374 0.0029,3.7267864 -0.174795,4.6969354 -0.805054,4.396267 -3.904905,8.162723 -7.837738,9.523199 -0.345037,0.119358 -0.906647,0.284244 -0.960181,0.281904 -0.01698,-7.43e-4 -0.179257,-0.04493 -0.360619,-0.0982 z m 0.766734,-2.082787 c 2.318557,-0.860864 4.210459,-2.573548 5.407314,-4.895088 l 0.226547,-0.439434 -0.03128,-0.210338 c -0.04153,-0.279197 -0.121293,-0.483994 -0.28795,-0.739286 -0.648615,-0.993579 -2.284493,-1.736235 -4.375268,-1.986285 -0.527409,-0.06308 -1.597524,-0.08546 -2.1362,-0.04469 -1.3066831,0.09891 -2.4329194,0.371004 -3.3405022,0.807062 -1.117723,0.537023 -1.7677324,1.239681 -1.862133,2.012961 -0.020076,0.164454 -0.019571,0.165935 0.2053178,0.602151 1.0520476,2.04065 2.6290228,3.602353 4.5895874,4.545141 0.288002,0.138493 1.116088,0.477879 1.203137,0.493098 0.0038,6.63e-4 0.184427,-0.06472 0.401434,-0.145293 z m -0.107236,-9.804054 c 0.382788,-0.03992 0.685179,-0.123985 1.017921,-0.282977 C 14.121657,10.322331 14.706884,9.599928 14.93315,8.702509 15.02268,8.3474251 15.02146,7.6481391 14.93065,7.2867518 14.76171,6.6140637 14.365728,6.0098285 13.826774,5.6022862 13.232306,5.1527647 12.457116,4.9320103 11.722756,5.0031148 11.325663,5.0415636 11.031274,5.12537 10.666666,5.3037614 9.8621422,5.6973907 9.290187,6.4081563 9.0686354,7.2896252 8.9785591,7.648004 8.9776734,8.3488158 9.066849,8.702509 c 0.2243281,0.8897347 0.7934349,1.599011 1.599817,1.993845 0.342931,0.167913 0.655616,0.260189 1.007474,0.297314 0.317505,0.0335 0.310934,0.03348 0.612597,0.002 z"
     id="path2266" />
</svg>
