<?xml version="1.0" encoding="UTF-8" standalone="no"?>
<svg
   viewBox="0 0 24 24"
   version="1.1"
   id="svg2314"
   sodipodi:docname="treasure-chest.svg"
   inkscape:version="1.2.2 (b0a8486541, 2022-12-01)"
   xmlns:inkscape="http://www.inkscape.org/namespaces/inkscape"
   xmlns:sodipodi="http://sodipodi.sourceforge.net/DTD/sodipodi-0.dtd"
   xmlns="http://www.w3.org/2000/svg"
   xmlns:svg="http://www.w3.org/2000/svg">
  <defs
     id="defs2318" />
  <sodipodi:namedview
     id="namedview2316"
     pagecolor="#ffffff"
     bordercolor="#000000"
     borderopacity="0.25"
     inkscape:showpageshadow="2"
     inkscape:pageopacity="0.0"
     inkscape:pagecheckerboard="0"
     inkscape:deskcolor="#d1d1d1"
     showgrid="false"
     inkscape:zoom="34.875"
     inkscape:cx="11.985663"
     inkscape:cy="12.028674"
     inkscape:window-width="1920"
     inkscape:window-height="1007"
     inkscape:window-x="0"
     inkscape:window-y="0"
     inkscape:window-maximized="1"
     inkscape:current-layer="svg2314" />
  <title
     id="title2310">treasure-chest</title>
  <path
     d="M5,4H19A3,3 0 0,1 22,7V11H15V10H9V11H2V7A3,3 0 0,1 5,4M11,11H13V13H11V11M2,12H9V13L11,15H13L15,13V12H22V20H2V12Z"
     id="path2312" />
  <path
     style="fill:#fafafa;stroke-width:0.0286738"
     d="m 2.0215054,8.8490457 c 0,-1.7964562 0.00708,-2.1847183 0.043355,-2.375917 C 2.2497326,5.4985593 2.8496572,4.7259825 3.7527568,4.299472 4.0826817,4.1436571 4.3870809,4.0640033 4.7885305,4.0284355 c 0.42616,-0.037757 13.9967795,-0.037757 14.4229395,0 0.401449,0.035568 0.705848,0.1152216 1.035773,0.2710365 0.9031,0.4265105 1.503024,1.1990873 1.687897,2.1736567 0.03627,0.1911987 0.04335,0.5794608 0.04335,2.375917 V 10.996416 H 18.494624 15.010753 V 10.494624 9.9928315 H 12 8.9892473 v 0.5017925 0.501792 H 5.5053763 2.0215054 Z"
     id="path2374" />
  <path
     style="fill:#fafafa;stroke-width:0.0286738"
     d="m 2.0215054,16 v -4 h 3.4838709 3.483871 v 0.509114 0.509114 l 0.9965672,0.996263 0.9965675,0.996262 h 1.017923 1.017923 l 0.996263,-0.996568 0.996262,-0.996567 V 12.508809 12 h 3.483871 3.483871 v 4 4 H 12 2.0215054 Z"
     id="path2376" />
  <path
     style="fill:#fafafa;stroke-width:0.0286738"
     d="M 11.02509,12 V 11.02509 H 12 12.97491 V 12 12.97491 H 12 11.02509 Z"
     id="path2378" />
</svg>
